<svg width="28" height="29" viewBox="0 0 28 29" fill="none" xmlns="http://www.w3.org/2000/svg">
<ellipse cx="14" cy="14.5" rx="14" ry="14.5" fill="#CB2B43"/>
<path d="M14 21.4911C13.6375 21.4911 13.3281 21.3584 13.0719 21.0929C12.8156 20.8275 12.6875 20.5071 12.6875 20.1317C12.6875 19.7562 12.8156 19.4358 13.0719 19.1704C13.3281 18.905 13.6375 18.7723 14 18.7723C14.3625 18.7723 14.6719 18.905 14.9281 19.1704C15.1844 19.4358 15.3125 19.7562 15.3125 20.1317C15.3125 20.5071 15.1844 20.8275 14.9281 21.0929C14.6719 21.3584 14.3625 21.4911 14 21.4911ZM12.6875 16.8303V7.50891H15.3125V16.8303H12.6875Z" fill="white"/>
</svg>
