<svg width="18" height="11" viewBox="0 0 18 11" fill="none" xmlns="http://www.w3.org/2000/svg">
<path d="M17.687 6.11922L13.9 9.95352C13.6913 10.1649 13.4177 10.2705 13.1442 10.2705C12.8706 10.2705 12.5971 10.1649 12.3884 9.95352C11.971 9.53089 11.971 8.84569 12.3884 8.42306L14.3507 6.4362L1.96739 6.4362C1.37709 6.4362 0.89855 5.95168 0.89855 5.354C0.898551 4.75632 1.37709 4.2718 1.96739 4.2718L14.3507 4.2718L12.3884 2.28494C11.971 1.86231 11.971 1.17711 12.3884 0.754476C12.8058 0.331843 13.4825 0.331843 13.9 0.754476L17.687 4.58878C18.1043 5.01138 18.1043 5.69662 17.687 6.11922Z" fill="white"/>
</svg>
