<svg width="16" height="14" viewBox="0 0 16 14" fill="none" xmlns="http://www.w3.org/2000/svg">
<path d="M7.6806 0.370602C7.83555 -0.0787135 8.471 -0.078715 8.62596 0.3706L10.0626 4.53637C10.1322 4.73803 10.322 4.87336 10.5353 4.87336L15.118 4.87336C15.6096 4.87336 15.8061 5.5083 15.4004 5.78595L11.7452 8.288C11.5594 8.41516 11.4816 8.65079 11.5549 8.86361L12.963 12.9466C13.1201 13.402 12.6055 13.7943 12.2079 13.5222L8.4357 10.94C8.26545 10.8235 8.0411 10.8235 7.87085 10.94L4.09862 13.5222C3.70105 13.7943 3.18644 13.402 3.34352 12.9466L4.75161 8.86361C4.825 8.65079 4.74712 8.41516 4.56135 8.288L0.906121 5.78595C0.500503 5.5083 0.697002 4.87336 1.18855 4.87336L5.77126 4.87336C5.98458 4.87336 6.1744 4.73803 6.24394 4.53637L7.6806 0.370602Z" fill="#FFA800"/>
</svg>
