<svg width="25" height="25" viewBox="0 0 25 25" fill="none" xmlns="http://www.w3.org/2000/svg">
<path d="M11.6697 1.23711C12.0659 0.646828 12.9341 0.646828 13.3303 1.23711L15.0431 3.78898C15.2854 4.15009 15.7334 4.31315 16.1512 4.19231L19.1036 3.33841C19.7865 3.14089 20.4516 3.699 20.3757 4.40584L20.0474 7.46162C20.001 7.89405 20.2394 8.30692 20.6371 8.48291L23.4476 9.72652C24.0977 10.0142 24.2485 10.8693 23.736 11.3619L21.5203 13.4918C21.2067 13.7932 21.124 14.2627 21.3155 14.6531L22.6691 17.4124C22.9822 18.0506 22.5481 18.8026 21.8388 18.8505L18.7724 19.0579C18.3385 19.0872 17.9733 19.3937 17.8691 19.8159L17.1324 22.7997C16.962 23.4899 16.1461 23.7868 15.5719 23.3676L13.0896 21.5555C12.7384 21.299 12.2616 21.299 11.9104 21.5555L9.42811 23.3676C8.85393 23.7868 8.03802 23.4899 7.86762 22.7997L7.13095 19.8159C7.0267 19.3937 6.66149 19.0872 6.22757 19.0579L3.16121 18.8505C2.45192 18.8026 2.01778 18.0506 2.33089 17.4124L3.68449 14.6531C3.87605 14.2627 3.79326 13.7932 3.47972 13.4918L1.26403 11.3619C0.751517 10.8693 0.902291 10.0142 1.5524 9.72651L4.36292 8.48291C4.76064 8.30692 4.99901 7.89405 4.95255 7.46162L4.62429 4.40584C4.54836 3.699 5.21349 3.14089 5.89641 3.33841L8.84877 4.19231C9.26656 4.31315 9.71455 4.15009 9.95693 3.78898L11.6697 1.23711Z" fill="#508DDF"/>
<path d="M11.5834 15.0665L11.7248 15.2079L11.8662 15.0665L17.2037 9.72897L17.3451 9.58755L17.2037 9.44613L16.6662 8.90863L16.5248 8.76721L16.3834 8.90863L11.7248 13.5672L9.60373 11.4461L9.4623 11.3047L9.32088 11.4461L8.78338 11.9836L8.64196 12.125L8.78338 12.2665L11.5834 15.0665Z" fill="white" stroke="white" stroke-width="0.4"/>
</svg>
